<svg width="110" height="110" viewBox="0 0 110 110" fill="none" xmlns="http://www.w3.org/2000/svg">
<g clip-path="url(#clip0_316_17)">
<path fill-rule="evenodd" clip-rule="evenodd" d="M55 110C85.3757 110 110 85.3757 110 55C110 24.6243 85.3757 0 55 0C24.6243 0 0 24.6243 0 55C0 85.3757 24.6243 110 55 110Z" fill="#0a66c2"/>
<path fill-rule="evenodd" clip-rule="evenodd" d="M64.9427 36.4135V40.6443H81.8658V36.4135H64.9427ZM22.2119 34.2114L41.7408 34.4277C41.7408 34.4277 52.465 33.8621 53.9431 42.3767C55.4212 50.8914 48.5487 52.903 48.5487 52.903C48.5487 52.903 57.0362 54.8308 55.8544 64.7763C54.6725 74.7217 43.0825 74.8243 43.0825 74.8243H22.2119V34.2114ZM31.0966 50.3751L39.1779 50.4256C39.6951 50.4256 41.0549 50.3805 42.1734 50.1164C42.6522 50.0034 43.5838 49.6818 44.2271 49.1018C44.4942 48.861 44.9862 48.1825 45.2702 47.3784C45.5462 46.5969 45.6179 45.691 45.6179 45.3435C45.6179 44.7072 45.502 44.1181 45.2702 43.5764C45.0384 43.0346 44.6907 42.566 44.2271 42.1704C43.7635 41.7749 43.1739 41.4653 42.4584 41.2417C41.7428 41.0181 40.8912 40.9063 39.9036 40.9063L31.0966 40.8559V50.3751ZM31.0966 67.454L39.9259 67.5097C40.491 67.5097 41.9767 67.4599 43.1987 67.168C43.7217 67.0431 44.7396 66.6877 45.4424 66.0466C45.7342 65.7805 46.2718 65.0306 46.5821 64.1418C46.8836 63.2781 46.9619 62.2768 46.9619 61.8927C46.9619 61.1894 46.8353 60.5384 46.5821 59.9396C46.3288 59.3408 45.9489 58.8228 45.4424 58.3856C44.9359 57.9484 44.2918 57.6063 43.51 57.3592C42.7282 57.1121 41.7978 56.9885 40.7187 56.9885L31.0966 56.9328V67.454ZM66.8088 62.0445C66.8215 62.2811 66.8088 68.1142 71.588 69.4539C77.1364 71.0092 79.6092 66.4004 79.8012 65.8663H87.0687C86.8807 66.7417 83.9264 78.6584 67.853 74.7745C57.9865 72.3905 58.4939 60.7081 58.4939 59.7076C58.4939 58.7861 58.5335 53.8851 62.5094 49.3656C66.4852 44.846 72.1457 44.846 73.292 44.846C74.4383 44.846 80.3335 44.846 83.9264 48.8344C88.5751 53.9949 87.6531 62.2637 87.6531 62.2637L66.8088 62.0445ZM79.5389 56.9328C79.4825 56.0185 79.2994 55.1759 78.9895 54.4051C78.6796 53.6342 78.2523 52.9664 77.7076 52.4017C77.1629 51.837 76.5102 51.3934 75.7496 51.0707C74.9889 50.748 74.139 50.5866 73.1999 50.5866C72.3547 50.5866 71.5705 50.7569 70.8474 51.0976C70.1243 51.4382 69.4904 51.8998 68.9457 52.4824C68.401 53.065 67.9643 53.7373 67.6356 54.4992C67.307 55.2611 67.1144 56.0723 67.0581 56.9328H79.5389Z" fill="white"/>
</g>
<defs>
<clipPath id="clip0_316_17">
<rect width="110" height="110" fill="white"/>
</clipPath>
</defs>
</svg>
