<svg width="110" height="110" viewBox="0 0 110 110" fill="none" xmlns="http://www.w3.org/2000/svg">
<g clip-path="url(#clip0_316_40)">
<path d="M55 110C85.3757 110 110 85.3757 110 55C110 24.6243 85.3757 0 55 0C24.6243 0 0 24.6243 0 55C0 85.3757 24.6243 110 55 110Z" fill="#0a66c2"/>
<path d="M43.6555 44.8328L64.5918 57.1812L67.2281 52.7114L46.2918 40.3631L43.6555 44.8328Z" fill="white"/>
<path d="M39.4146 57.302L62.8887 63.6123L64.2359 58.6008L40.7618 52.2905L39.4146 57.302Z" fill="white"/>
<path d="M38.1322 68.338L62.3379 70.5693L62.8143 65.4016L38.6086 63.1703L38.1322 68.338Z" fill="white"/>
<path d="M62.1047 72.0293H37.7969V77.2188H62.1047V72.0293Z" fill="white"/>
<path d="M70.3813 84.2218C70.3813 84.2218 70.3813 85.4372 70.3427 85.4372V85.4565H31.4503C31.4503 85.4565 30.2349 85.4565 30.2349 85.4372H30.1963V60.1455H34.344V81.3666H66.2336V60.1455H70.3813V84.2218Z" fill="white"/>
<path d="M72.4235 48.8551L58.7285 28.772L54.4409 31.6958L68.1359 51.7789L72.4235 48.8551Z" fill="white"/>
<path d="M78.5053 47.6761L74.3486 23.7256L69.2354 24.613L73.392 48.5635L78.5053 47.6761Z" fill="white"/>
</g>
<defs>
<clipPath id="clip0_316_40">
<rect width="110" height="110" fill="white"/>
</clipPath>
</defs>
</svg>
