<svg width="110" height="110" viewBox="0 0 110 110" fill="none" xmlns="http://www.w3.org/2000/svg">
<g clip-path="url(#clip0_317_50)">
<path fill-rule="evenodd" clip-rule="evenodd" d="M55.9651 59.8082L39.4608 107.759C44.3902 109.209 49.6014 110 54.9991 110C61.4032 110 67.546 108.893 73.2634 106.882C73.1191 106.645 72.9816 106.397 72.8716 106.126L55.9651 59.8082ZM103.263 28.612C103.5 30.3652 103.634 32.242 103.634 34.2667C103.634 39.8458 102.589 46.1192 99.4503 53.967L82.6504 102.536C99.0034 93.0041 110 75.2864 110 54.9983C110 45.4352 107.556 36.4461 103.263 28.612ZM92.1284 52.2234C92.1284 45.424 89.6844 40.718 87.5944 37.0571C84.8066 32.523 82.1906 28.6868 82.1906 24.1562C82.1906 19.0996 86.0234 14.3937 91.4272 14.3937C91.6712 14.3937 91.9016 14.4246 92.1388 14.4384C82.3556 5.4725 69.3163 0 54.9991 0C35.7827 0 18.8796 9.85875 9.04492 24.7878C10.3374 24.8291 11.5543 24.8531 12.5855 24.8531C18.3365 24.8531 27.2439 24.1553 27.2439 24.1553C30.207 23.98 30.5577 28.3388 27.5945 28.6859C27.5945 28.6859 24.6142 29.0366 21.3005 29.2119L41.3282 88.7846L53.3663 52.6866L44.7992 29.2119C41.8361 29.0366 39.0277 28.6859 39.0277 28.6859C36.0645 28.5106 36.4117 23.98 39.3783 24.1553C39.3783 24.1553 48.4602 24.8531 53.8648 24.8531C59.6157 24.8531 68.5231 24.1553 68.5231 24.1553C71.4897 23.98 71.8369 28.3388 68.8737 28.6859C68.8737 28.6859 65.89 29.0366 62.5797 29.2119L82.4562 88.3309L87.9459 70.0021C90.3169 62.3915 92.1284 56.9293 92.1284 52.2234ZM0 54.9974C0 76.7671 12.65 95.5814 30.9968 104.495L4.76094 32.615C1.71187 39.453 0 47.0224 0 54.9974Z" fill="#0a66c2"/>
</g>
<defs>
<clipPath id="clip0_317_50">
<rect width="110" height="110" fill="white"/>
</clipPath>
</defs>
</svg>
