<svg width="110" height="110" viewBox="0 0 110 110" fill="none" xmlns="http://www.w3.org/2000/svg">
<g clip-path="url(#clip0_316_22)">
<path d="M55 110C85.3757 110 110 85.3757 110 55C110 24.6243 85.3757 0 55 0C24.6243 0 0 24.6243 0 55C0 85.3757 24.6243 110 55 110Z" fill="#0a66c2"/>
<path d="M37.8125 37.8125H24.0625V85.9375H37.8125V37.8125Z" fill="white"/>
<path d="M70.4653 37.8125C60.8713 37.8125 59.2212 41.3119 58.4375 44.6875V37.8125H44.6875V85.9375H58.4375V58.4375C58.4375 53.9791 60.8541 51.5625 65.3125 51.5625C69.6644 51.5625 72.1875 53.9275 72.1875 58.4375V85.9375H85.9375V61.875C85.9375 48.125 84.1466 37.8125 70.4653 37.8125Z" fill="white"/>
<path d="M30.9375 34.375C34.7345 34.375 37.8125 31.297 37.8125 27.5C37.8125 23.703 34.7345 20.625 30.9375 20.625C27.1405 20.625 24.0625 23.703 24.0625 27.5C24.0625 31.297 27.1405 34.375 30.9375 34.375Z" fill="white"/>
</g>
<defs>
<clipPath id="clip0_316_22">
<rect width="110" height="110" fill="white"/>
</clipPath>
</defs>
</svg>
