<svg width="110" height="110" viewBox="0 0 110 110" fill="#0a66c2" xmlns="http://www.w3.org/2000/svg">
<g clip-path="url(#clip0_316_35)">
<path fill-rule="evenodd" clip-rule="evenodd" d="M54.9966 1.14551C24.6262 1.14551 0 25.8663 0 56.3672C0 80.7597 15.7575 101.456 37.6166 108.759C40.3666 109.266 41.3703 107.561 41.3703 106.098C41.3703 104.787 41.3222 101.315 41.2947 96.708C25.9944 100.045 22.7666 89.3054 22.7666 89.3054C20.2675 82.9279 16.6616 81.2298 16.6616 81.2298C11.6669 77.8026 17.0397 77.8722 17.0397 77.8722C22.5569 78.2624 25.4616 83.563 25.4616 83.563C30.3703 92.0012 38.335 89.5649 41.47 88.1495C41.9684 84.5814 43.3916 82.1476 44.9625 80.7675C32.7491 79.3736 19.91 74.6384 19.91 53.4797C19.91 47.4504 22.0516 42.5227 25.5716 38.6607C25.0044 37.2633 23.1172 31.6516 26.1078 24.0487C26.1078 24.0487 30.7278 22.5646 41.2328 29.7086C45.6225 28.4831 50.325 27.8729 55.0034 27.848C59.675 27.8721 64.3809 28.4831 68.7741 29.7086C79.2722 22.5646 83.8819 24.0487 83.8819 24.0487C86.8828 31.6516 84.9956 37.2633 84.4284 38.6607C87.9553 42.5227 90.0831 47.4504 90.0831 53.4797C90.0831 74.69 77.2234 79.3598 64.9722 80.7262C66.9453 82.4312 68.7053 85.7991 68.7053 90.9519C68.7053 98.3339 68.6366 104.287 68.6366 106.099C68.6366 107.577 69.6266 109.295 72.4178 108.753C94.2562 101.435 110 80.7529 110 56.3672C110 25.8663 85.3737 1.14551 54.9966 1.14551Z" fill="#0a66c2"/>
</g>
<defs>
<clipPath id="clip0_316_35">
<rect width="110" height="110" fill="white"/>
</clipPath>
</defs>
</svg>
